<?xml version="1.0" encoding="utf-8"?>
<!-- Generator: Adobe Illustrator 28.0.0, SVG Export Plug-In . SVG Version: 6.00 Build 0)  -->
<svg version="1.1" id="Layer_1" xmlns="http://www.w3.org/2000/svg" xmlns:xlink="http://www.w3.org/1999/xlink" x="0px" y="0px"
	 viewBox="454 250 582 266" xml:space="preserve">
<style type="text/css">
	.st0{fill:#231F20;}
</style>
<g>
	<path class="st0" d="M853.3,255.7h51.5v197c0,11.3-1.8,20.4-5.3,27.4c-3.5,7.3-9.2,13.9-17.3,19.9c-10.9,7.9-24.1,11.8-39.6,11.8
		c-17.6,0-32.4-4.4-44.3-13.1c-15.1-11.1-22.7-28.9-22.7-53.3v-36.3L827,286.3v154.6c0,8.3,1,14.2,3,17.6s5.4,5.2,10.2,5.2
		c4.9,0,8.3-1.6,10.2-4.8c1.9-3.4,2.8-9.3,2.8-17.9V255.7z"/>
</g>
<polygon class="st0" points="1030.8,255.8 1018.3,308 975.6,308 975.6,328.6 1002.1,328.6 1002.1,380.8 975.6,380.8 975.6,455.9 
	1030.8,455.9 1030.8,508 923.4,508.1 923.4,255.8 "/>
<path class="st0" d="M728.7,455.9l80.9-200.1l-350.5,0.1v254h51.7V434h20.5v-52.2h-20.5V308l209.3-0.1L638.5,508c0,0,85.8,0,133.8,0
	c-23.3-11.4-23.7-52.2-23.7-52.2H728.7z"/>
<path class="st0" d="M679,329.9h-49.3V441c0,8.6-0.9,14.5-2.8,17.9c-1.9,3.2-5.3,4.8-10.2,4.8c-4.8,0-8.2-1.7-10.2-5.2
	c-2-3.5-3-9.3-3-17.6v-111h-51.5v115.5c0,24.4,7.6,42.2,22.7,53.3c8.9,6.5,19.3,10.5,31.3,12.2L679,329.9z"/>
</svg>
